<?xml version="1.0" encoding="utf-8"?>
<!-- Generator: Adobe Illustrator 22.0.1, SVG Export Plug-In . SVG Version: 6.00 Build 0)  -->
<!DOCTYPE svg PUBLIC "-//W3C//DTD SVG 1.1//EN" "http://www.w3.org/Graphics/SVG/1.1/DTD/svg11.dtd">
<svg version="1.1" id="Capa_1" xmlns="http://www.w3.org/2000/svg" xmlns:xlink="http://www.w3.org/1999/xlink" x="0px" y="0px"
	 viewBox="0 0 55.6 279" style="enable-background:new 0 0 55.6 279;" xml:space="preserve">
<style type="text/css">
	.st0{fill:#F0DDEA;}
	.st1{fill:none;stroke:#B9007C;stroke-width:0.18;stroke-linecap:round;stroke-linejoin:round;stroke-miterlimit:10;}
	.st2{fill:#DBA2C5;}
	.st3{fill:#D8C5A3;}
	.st4{fill:none;stroke:#A07E4D;stroke-width:0.18;stroke-linecap:round;stroke-linejoin:round;stroke-miterlimit:10;}
	.st5{fill:#EFEDDF;}
</style>
<g>
	<polygon class="st0" points="23.8,133.3 23.8,133.3 23.8,133.3 	"/>
	<polygon class="st1" points="23.8,133.3 23.8,133.3 23.8,133.3 	"/>
	<polygon class="st0" points="23.8,183.7 23.8,183.7 23.8,183.6 	"/>
	<polygon class="st1" points="23.8,183.7 23.8,183.7 23.8,183.6 	"/>
	<polygon class="st0" points="23.8,158.3 23.8,158.3 23.8,158.3 	"/>
	<polygon class="st1" points="23.8,158.3 23.8,158.3 23.8,158.3 	"/>
	<polygon class="st0" points="23.8,33.9 23.8,33.9 23.8,33.9 	"/>
	<polygon class="st1" points="23.8,33.9 23.8,33.9 23.8,33.9 	"/>
	<polygon class="st0" points="23.8,58.9 23.8,58.9 23.8,58.9 	"/>
	<polygon class="st1" points="23.8,58.9 23.8,58.9 23.8,58.9 	"/>
	<polygon class="st0" points="23.8,108.6 23.8,108.6 23.8,108.5 	"/>
	<polygon class="st1" points="23.8,108.6 23.8,108.6 23.8,108.5 	"/>
	<polygon class="st0" points="23.8,208.6 23.8,208.6 23.8,208.6 	"/>
	<polygon class="st1" points="23.8,208.6 23.8,208.6 23.8,208.6 	"/>
	<polygon class="st0" points="23.7,258.4 23.8,258.4 23.8,258.3 	"/>
	<polygon class="st1" points="23.8,258.4 23.8,258.3 23.8,258.4 	"/>
	<polygon class="st0" points="23.8,233.4 23.8,233.4 23.8,233.3 	"/>
	<polygon class="st1" points="23.8,233.4 23.8,233.4 23.8,233.3 	"/>
	<polygon class="st0" points="23.8,83.6 23.8,83.6 23.8,83.6 	"/>
	<polygon class="st1" points="23.8,83.6 23.8,83.6 23.8,83.6 	"/>
	<polygon class="st2" points="23.8,33.9 23.8,33.9 46.1,33.9 46,34 46.2,34 46.2,11.6 23.9,11.6 23.9,33.9 	"/>
	<polygon class="st1" points="23.8,33.9 23.8,33.9 46.1,33.9 46,34 46.2,34 46.2,11.6 23.9,11.6 23.9,33.9 	"/>
	<polygon class="st0" points="23.7,33.9 23.8,33.9 23.8,33.9 23.9,33.9 23.9,11.6 23.9,11.5 11.8,22.1 11.8,44.5 12.2,44.2 
		11.9,44.2 	"/>
	<polygon class="st1" points="23.7,33.9 23.8,33.9 23.8,33.9 23.9,33.9 23.9,11.6 23.9,11.5 11.8,22.1 11.8,44.5 12.2,44.2 
		11.9,44.2 	"/>
	<polygon class="st0" points="23.9,36.6 43.1,36.6 46,34 46.1,33.9 23.8,33.9 23.8,33.9 23.7,33.9 11.9,44.2 12.2,44.2 15.1,44.2 
		23.9,36.5 	"/>
	<polygon class="st1" points="23.9,36.6 43.1,36.6 46,34 46.1,33.9 23.8,33.9 23.8,33.9 23.7,33.9 11.9,44.2 12.2,44.2 15.1,44.2 
		23.9,36.5 	"/>
	<polygon class="st2" points="23.9,58.9 23.8,58.9 23.8,58.9 46.1,58.9 46,59 46.2,59 46.2,36.6 43.1,36.6 23.9,36.6 	"/>
	<polygon class="st1" points="23.9,58.9 23.8,58.9 23.8,58.9 46.1,58.9 46,59 46.2,59 46.2,36.6 43.1,36.6 23.9,36.6 	"/>
	<polygon class="st0" points="23.7,58.9 23.8,58.9 23.8,58.9 23.9,58.9 23.9,36.6 23.9,36.5 15.1,44.2 11.8,47.1 11.8,69.4 
		12.2,69.1 11.9,69.1 	"/>
	<polygon class="st1" points="23.7,58.9 23.8,58.9 23.8,58.9 23.9,58.9 23.9,36.6 23.9,36.5 15.1,44.2 11.8,47.1 11.8,69.4 
		12.2,69.1 11.9,69.1 	"/>
	<polygon class="st0" points="23.9,61.2 43.4,61.2 46,59 46.1,58.9 23.8,58.9 23.8,58.9 23.7,58.9 11.9,69.2 12.2,69.2 14.8,69.2 
		23.9,61.1 	"/>
	<polygon class="st1" points="23.9,61.2 43.4,61.2 46,59 46.1,58.9 23.8,58.9 23.8,58.9 23.7,58.9 11.9,69.2 12.2,69.2 14.8,69.2 
		23.9,61.1 	"/>
	<polygon class="st2" points="23.9,83.5 23.8,83.6 23.8,83.6 46.1,83.6 46,83.7 46.2,83.7 46.2,61.2 43.4,61.2 23.9,61.2 	"/>
	<polygon class="st1" points="23.9,83.5 23.8,83.6 23.8,83.6 46.1,83.6 46,83.7 46.2,83.7 46.2,61.2 43.4,61.2 23.9,61.2 	"/>
	<polygon class="st0" points="23.7,83.6 23.8,83.6 23.8,83.6 23.9,83.5 23.9,61.2 23.9,61.1 14.8,69.1 11.8,71.7 11.8,94.1 
		12.2,93.8 11.9,93.8 	"/>
	<polygon class="st1" points="23.7,83.6 23.8,83.6 23.8,83.6 23.9,83.5 23.9,61.2 23.9,61.1 14.8,69.1 11.8,71.7 11.8,94.1 
		12.2,93.8 11.9,93.8 	"/>
	<polygon class="st0" points="23.9,86.2 43.1,86.2 46,83.6 46.1,83.6 23.8,83.6 23.8,83.6 23.7,83.6 11.9,93.8 12.2,93.8 15.1,93.8 
		23.9,86.1 	"/>
	<polygon class="st1" points="23.9,86.2 43.1,86.2 46,83.6 46.1,83.6 23.8,83.6 23.8,83.6 23.7,83.6 11.9,93.8 12.2,93.8 15.1,93.8 
		23.9,86.1 	"/>
	<polygon class="st2" points="23.9,108.5 23.8,108.5 23.8,108.6 46.1,108.6 46,108.6 46.2,108.6 46.2,86.2 43.1,86.2 23.9,86.2 	"/>
	<polygon class="st1" points="23.9,108.5 23.8,108.5 23.8,108.6 46.1,108.6 46,108.6 46.2,108.6 46.2,86.2 43.1,86.2 23.9,86.2 	"/>
	<polygon class="st0" points="23.7,108.6 23.8,108.6 23.8,108.5 23.9,108.5 23.9,86.2 23.9,86.1 15.1,93.8 11.8,96.7 11.8,119.1 
		12.2,118.8 11.9,118.8 	"/>
	<polygon class="st1" points="23.7,108.6 23.8,108.6 23.8,108.5 23.9,108.5 23.9,86.2 23.9,86.1 15.1,93.8 11.8,96.7 11.8,119.1 
		12.2,118.8 11.9,118.8 	"/>
	<polygon class="st0" points="23.9,110.9 43.4,110.9 46,108.6 46.1,108.6 23.8,108.6 23.8,108.6 23.7,108.6 11.9,118.8 12.2,118.8 
		14.8,118.8 23.9,110.8 	"/>
	<polygon class="st1" points="23.9,110.9 43.4,110.9 46,108.6 46.1,108.6 23.8,108.6 23.8,108.6 23.7,108.6 11.9,118.8 12.2,118.8 
		14.8,118.8 23.9,110.8 	"/>
	<polygon class="st2" points="23.9,133.2 23.8,133.3 23.8,133.3 46.1,133.3 46,133.4 46.2,133.4 46.2,110.9 43.4,110.9 23.9,110.9 	
		"/>
	<polygon class="st1" points="23.9,133.2 23.8,133.3 23.8,133.3 46.1,133.3 46,133.4 46.2,133.4 46.2,110.9 43.4,110.9 23.9,110.9 	
		"/>
	<polygon class="st0" points="23.7,133.3 23.8,133.3 23.8,133.3 23.9,133.2 23.9,110.9 23.9,110.8 14.8,118.8 11.8,121.4 
		11.8,143.8 12.2,143.5 11.9,143.5 	"/>
	<polygon class="st1" points="23.7,133.3 23.8,133.3 23.8,133.3 23.9,133.2 23.9,110.9 23.9,110.8 14.8,118.8 11.8,121.4 
		11.8,143.8 12.2,143.5 11.9,143.5 	"/>
	<polygon class="st0" points="23.9,135.9 43,135.9 46,133.4 46.1,133.3 23.8,133.3 23.8,133.3 23.7,133.3 11.9,143.5 12.2,143.5 
		15.2,143.5 23.9,135.9 	"/>
	<polygon class="st1" points="23.9,135.9 43,135.9 46,133.4 46.1,133.3 23.8,133.3 23.8,133.3 23.7,133.3 11.9,143.5 12.2,143.5 
		15.2,143.5 23.9,135.9 	"/>
	<polygon class="st2" points="23.9,158.2 23.8,158.3 23.8,158.3 46.1,158.3 46,158.4 46.2,158.4 46.2,135.9 43,135.9 23.9,135.9 	
		"/>
	<polygon class="st1" points="23.9,158.2 23.8,158.3 23.8,158.3 46.1,158.3 46,158.4 46.2,158.4 46.2,135.9 43,135.9 23.9,135.9 	
		"/>
	<polygon class="st0" points="23.7,158.3 23.8,158.3 23.8,158.3 23.9,158.2 23.9,135.9 23.9,135.9 15.2,143.5 11.8,146.5 
		11.8,168.8 12.2,168.5 11.9,168.5 	"/>
	<polygon class="st1" points="23.7,158.3 23.8,158.3 23.8,158.3 23.9,158.2 23.9,135.9 23.9,135.9 15.2,143.5 11.8,146.5 
		11.8,168.8 12.2,168.5 11.9,168.5 	"/>
	<polygon class="st0" points="23.9,161.3 42.7,161.3 46,158.4 46.1,158.3 23.8,158.3 23.8,158.3 23.7,158.3 11.9,168.5 12.2,168.5 
		15.5,168.5 23.9,161.2 	"/>
	<polygon class="st1" points="23.9,161.3 42.7,161.3 46,158.4 46.1,158.3 23.8,158.3 23.8,158.3 23.7,158.3 11.9,168.5 12.2,168.5 
		15.5,168.5 23.9,161.2 	"/>
	<polygon class="st2" points="23.9,183.6 23.8,183.6 23.8,183.7 46.1,183.7 46,183.7 46.2,183.7 46.2,161.3 42.7,161.3 23.9,161.3 	
		"/>
	<polygon class="st1" points="23.9,183.6 23.8,183.6 23.8,183.7 46.1,183.7 46,183.7 46.2,183.7 46.2,161.3 42.7,161.3 23.9,161.3 	
		"/>
	<polygon class="st0" points="23.7,183.7 23.8,183.7 23.8,183.6 23.9,183.6 23.9,161.3 23.9,161.2 15.5,168.5 11.8,171.8 
		11.8,194.2 12.2,193.9 11.9,193.9 	"/>
	<polygon class="st1" points="23.7,183.7 23.8,183.7 23.8,183.6 23.9,183.6 23.9,161.3 23.9,161.2 15.5,168.5 11.8,171.8 
		11.8,194.2 12.2,193.9 11.9,193.9 	"/>
	<polygon class="st0" points="23.9,186.3 43.1,186.3 46,183.7 46.1,183.7 23.8,183.7 23.8,183.7 23.7,183.7 11.9,193.9 12.2,193.9 
		15.1,193.9 23.9,186.2 	"/>
	<polygon class="st1" points="23.9,186.3 43.1,186.3 46,183.7 46.1,183.7 23.8,183.7 23.8,183.7 23.7,183.7 11.9,193.9 12.2,193.9 
		15.1,193.9 23.9,186.2 	"/>
	<polygon class="st2" points="23.9,208.6 23.8,208.6 23.8,208.6 46.1,208.6 46,208.7 46.2,208.7 46.2,186.3 43.1,186.3 23.9,186.3 	
		"/>
	<polygon class="st1" points="23.9,208.6 23.8,208.6 23.8,208.6 46.1,208.6 46,208.7 46.2,208.7 46.2,186.3 43.1,186.3 23.9,186.3 	
		"/>
	<polygon class="st0" points="23.7,208.6 23.8,208.6 23.8,208.6 23.9,208.6 23.9,186.3 23.9,186.2 15.1,193.9 11.8,196.8 
		11.8,219.1 12.2,218.9 11.9,218.9 	"/>
	<polygon class="st1" points="23.7,208.6 23.8,208.6 23.8,208.6 23.9,208.6 23.9,186.3 23.9,186.2 15.1,193.9 11.8,196.8 
		11.8,219.1 12.2,218.9 11.9,218.9 	"/>
	<polygon class="st0" points="23.9,211 43.4,211 46,208.7 46.1,208.6 23.8,208.6 23.8,208.6 23.7,208.6 11.9,218.9 12.2,218.9 
		14.8,218.9 23.9,210.9 	"/>
	<polygon class="st1" points="23.9,211 43.4,211 46,208.7 46.1,208.6 23.8,208.6 23.8,208.6 23.7,208.6 11.9,218.9 12.2,218.9 
		14.8,218.9 23.9,210.9 	"/>
	<polygon class="st2" points="23.9,233.3 23.8,233.3 23.8,233.4 46.1,233.4 46,233.4 46.2,233.4 46.2,211 43.4,211 23.9,211 	"/>
	<polygon class="st1" points="23.9,233.3 23.8,233.3 23.8,233.4 46.1,233.4 46,233.4 46.2,233.4 46.2,211 43.4,211 23.9,211 	"/>
	<polygon class="st0" points="23.7,233.4 23.8,233.4 23.8,233.3 23.9,233.3 23.9,211 23.9,210.9 14.8,218.9 11.8,221.5 11.8,243.9 
		12.2,243.6 11.9,243.6 	"/>
	<polygon class="st1" points="23.7,233.4 23.8,233.4 23.8,233.3 23.9,233.3 23.9,211 23.9,210.9 14.8,218.9 11.8,221.5 11.8,243.9 
		12.2,243.6 11.9,243.6 	"/>
	<polygon class="st0" points="23.9,235.9 23.9,236 43,236 46,233.4 46.1,233.4 23.8,233.4 23.8,233.4 23.7,233.4 11.9,243.6 
		12.2,243.6 15.2,243.6 	"/>
	<polygon class="st1" points="23.9,235.9 23.9,236 43,236 46,233.4 46.1,233.4 23.8,233.4 23.8,233.4 23.7,233.4 11.9,243.6 
		12.2,243.6 15.2,243.6 	"/>
	<polygon class="st2" points="23.9,258.3 23.8,258.3 23.8,258.4 46.1,258.4 46,258.4 46.2,258.4 46.2,236 43,236 23.9,236 	"/>
	<polygon class="st1" points="23.9,258.3 23.8,258.3 23.8,258.4 46.1,258.4 46,258.4 46.2,258.4 46.2,236 43,236 23.9,236 	"/>
	<polygon class="st0" points="23.7,258.4 23.8,258.4 23.8,258.3 23.9,258.3 23.9,236 23.9,235.9 15.2,243.6 11.8,246.5 11.8,268.9 
		12.2,268.6 11.9,268.6 	"/>
	<polygon class="st1" points="23.7,258.4 23.8,258.4 23.8,258.3 23.9,258.3 23.9,236 23.9,235.9 15.2,243.6 11.8,246.5 11.8,268.9 
		12.2,268.6 11.9,268.6 	"/>
	<polygon class="st2" points="23.8,258.4 23.8,258.4 23.7,258.4 11.9,268.6 12.2,268.6 34.3,268.6 46,258.4 46.1,258.4 	"/>
	<polygon class="st1" points="23.8,258.4 23.8,258.4 23.7,258.4 11.9,268.6 12.2,268.6 34.3,268.6 46,258.4 46.1,258.4 	"/>
</g>
<g>
	<polygon class="st0" points="178.1,249.5 178.2,249.5 178.2,249.5 	"/>
	<polygon class="st1" points="178.2,249.5 178.2,249.5 178.1,249.5 	"/>
	<polygon class="st3" points="178.2,249.5 178.2,249.5 178.2,249.5 200.5,249.5 200.4,249.6 200.6,249.6 200.6,227.2 197.4,227.2 
		178.2,227.2 	"/>
	<polygon class="st4" points="178.2,249.5 178.2,249.5 178.2,249.5 200.5,249.5 200.4,249.6 200.6,249.6 200.6,227.2 197.4,227.2 
		178.2,227.2 	"/>
	<polygon class="st5" points="178.1,249.5 178.1,249.5 178.2,249.5 178.2,249.5 178.2,227.2 178.2,227.1 169.6,234.7 166.2,237.7 
		166.2,260 166.5,259.8 166.3,259.8 	"/>
	<polygon class="st4" points="178.1,249.5 178.1,249.5 178.2,249.5 178.2,249.5 178.2,227.2 178.2,227.1 169.6,234.7 166.2,237.7 
		166.2,260 166.5,259.8 166.3,259.8 	"/>
	<polygon class="st3" points="178.2,249.5 178.1,249.5 178.1,249.5 166.3,259.8 166.5,259.8 188.6,259.8 200.4,249.6 200.5,249.5 	
		"/>
	<polygon class="st4" points="178.2,249.5 178.1,249.5 178.1,249.5 166.3,259.8 166.5,259.8 188.6,259.8 200.4,249.6 200.5,249.5 	
		"/>
</g>
</svg>
