<?xml version="1.0" encoding="utf-8"?>
<!-- Generator: Adobe Illustrator 22.0.1, SVG Export Plug-In . SVG Version: 6.00 Build 0)  -->
<!DOCTYPE svg PUBLIC "-//W3C//DTD SVG 1.1//EN" "http://www.w3.org/Graphics/SVG/1.1/DTD/svg11.dtd">
<svg version="1.1" id="Capa_1" xmlns="http://www.w3.org/2000/svg" xmlns:xlink="http://www.w3.org/1999/xlink" x="0px" y="0px"
	 viewBox="0 0 39.5 41.6" style="enable-background:new 0 0 39.5 41.6;" xml:space="preserve">
<style type="text/css">
	.st0{fill:#F0DDEA;}
	.st1{fill:none;stroke:#B9007C;stroke-width:0.18;stroke-linecap:round;stroke-linejoin:round;stroke-miterlimit:10;}
	.st2{fill:#DBA2C5;}
	.st3{fill:#D8C5A3;}
	.st4{fill:none;stroke:#A07E4D;stroke-width:0.18;stroke-linecap:round;stroke-linejoin:round;stroke-miterlimit:10;}
	.st5{fill:#EFEDDF;}
</style>
<g>
	<polygon class="st0" points="-140.2,-89.6 -140.2,-89.6 -140.2,-89.7 	"/>
	<polygon class="st1" points="-140.2,-89.6 -140.2,-89.6 -140.2,-89.7 	"/>
	<polygon class="st0" points="-140.2,-39.3 -140.2,-39.3 -140.2,-39.3 	"/>
	<polygon class="st1" points="-140.2,-39.3 -140.2,-39.3 -140.2,-39.3 	"/>
	<polygon class="st0" points="-140.2,-64.6 -140.2,-64.6 -140.2,-64.6 	"/>
	<polygon class="st1" points="-140.2,-64.6 -140.2,-64.6 -140.2,-64.6 	"/>
	<polygon class="st0" points="-140.2,-189 -140.2,-189 -140.2,-189 	"/>
	<polygon class="st1" points="-140.2,-189 -140.2,-189 -140.2,-189 	"/>
	<polygon class="st0" points="-140.2,-164 -140.2,-164 -140.2,-164 	"/>
	<polygon class="st1" points="-140.2,-164 -140.2,-164 -140.2,-164 	"/>
	<polygon class="st0" points="-140.2,-114.3 -140.2,-114.3 -140.2,-114.4 	"/>
	<polygon class="st1" points="-140.2,-114.3 -140.2,-114.3 -140.2,-114.4 	"/>
	<polygon class="st0" points="-140.2,-14.3 -140.2,-14.3 -140.2,-14.3 	"/>
	<polygon class="st1" points="-140.2,-14.3 -140.2,-14.3 -140.2,-14.3 	"/>
	<polygon class="st0" points="-140.3,35.5 -140.2,35.5 -140.2,35.4 	"/>
	<polygon class="st1" points="-140.2,35.5 -140.2,35.4 -140.2,35.5 	"/>
	<polygon class="st0" points="-140.2,10.5 -140.2,10.5 -140.2,10.4 	"/>
	<polygon class="st1" points="-140.2,10.4 -140.2,10.4 -140.2,10.4 	"/>
	<polygon class="st0" points="-140.2,-139.3 -140.2,-139.3 -140.2,-139.4 	"/>
	<polygon class="st1" points="-140.2,-139.3 -140.2,-139.3 -140.2,-139.4 	"/>
	<polygon class="st2" points="-140.2,-189 -140.2,-189 -117.9,-189 -118,-188.9 -117.8,-188.9 -117.8,-211.3 -140.1,-211.3 
		-140.1,-189 	"/>
	<polygon class="st1" points="-140.2,-189 -140.2,-189 -117.9,-189 -118,-188.9 -117.8,-188.9 -117.8,-211.3 -140.1,-211.3 
		-140.1,-189 	"/>
	<polygon class="st0" points="-140.3,-189 -140.2,-189 -140.2,-189 -140.1,-189.1 -140.1,-211.3 -140.1,-211.4 -152.2,-200.8 
		-152.2,-178.5 -151.8,-178.8 -152.1,-178.8 	"/>
	<polygon class="st1" points="-140.3,-189 -140.2,-189 -140.2,-189 -140.1,-189.1 -140.1,-211.3 -140.1,-211.4 -152.2,-200.8 
		-152.2,-178.5 -151.8,-178.8 -152.1,-178.8 	"/>
	<polygon class="st0" points="-140.1,-186.4 -120.9,-186.4 -118,-188.9 -117.9,-189 -140.2,-189 -140.2,-189 -140.3,-189 
		-152.1,-178.8 -151.8,-178.8 -148.9,-178.8 -140.1,-186.4 	"/>
	<polygon class="st1" points="-140.1,-186.4 -120.9,-186.4 -118,-188.9 -117.9,-189 -140.2,-189 -140.2,-189 -140.3,-189 
		-152.1,-178.8 -151.8,-178.8 -148.9,-178.8 -140.1,-186.4 	"/>
	<polygon class="st2" points="-140.1,-164.1 -140.2,-164 -140.2,-164 -117.9,-164 -118,-163.9 -117.8,-163.9 -117.8,-186.4 
		-120.9,-186.4 -140.1,-186.4 	"/>
	<polygon class="st1" points="-140.1,-164.1 -140.2,-164 -140.2,-164 -117.9,-164 -118,-163.9 -117.8,-163.9 -117.8,-186.4 
		-120.9,-186.4 -140.1,-186.4 	"/>
	<polygon class="st0" points="-140.3,-164 -140.2,-164 -140.2,-164 -140.1,-164.1 -140.1,-186.4 -140.1,-186.4 -148.9,-178.8 
		-152.2,-175.8 -152.2,-153.5 -151.8,-153.8 -152.1,-153.8 	"/>
	<polygon class="st1" points="-140.3,-164 -140.2,-164 -140.2,-164 -140.1,-164.1 -140.1,-186.4 -140.1,-186.4 -148.9,-178.8 
		-152.2,-175.8 -152.2,-153.5 -151.8,-153.8 -152.1,-153.8 	"/>
	<polygon class="st0" points="-140.1,-161.7 -120.6,-161.7 -118,-163.9 -117.9,-164 -140.2,-164 -140.2,-164 -140.3,-164 
		-152.1,-153.8 -151.8,-153.8 -149.2,-153.8 -140.1,-161.8 	"/>
	<polygon class="st1" points="-140.1,-161.7 -120.6,-161.7 -118,-163.9 -117.9,-164 -140.2,-164 -140.2,-164 -140.3,-164 
		-152.1,-153.8 -151.8,-153.8 -149.2,-153.8 -140.1,-161.8 	"/>
	<polygon class="st2" points="-140.1,-139.4 -140.2,-139.4 -140.2,-139.3 -117.9,-139.3 -118,-139.3 -117.8,-139.3 -117.8,-161.7 
		-120.6,-161.7 -140.1,-161.7 	"/>
	<polygon class="st1" points="-140.1,-139.4 -140.2,-139.4 -140.2,-139.3 -117.9,-139.3 -118,-139.3 -117.8,-139.3 -117.8,-161.7 
		-120.6,-161.7 -140.1,-161.7 	"/>
	<polygon class="st0" points="-140.3,-139.3 -140.2,-139.3 -140.2,-139.4 -140.1,-139.4 -140.1,-161.7 -140.1,-161.8 -149.2,-153.8 
		-152.2,-151.2 -152.2,-128.8 -151.8,-129.1 -152.1,-129.1 	"/>
	<polygon class="st1" points="-140.3,-139.3 -140.2,-139.3 -140.2,-139.4 -140.1,-139.4 -140.1,-161.7 -140.1,-161.8 -149.2,-153.8 
		-152.2,-151.2 -152.2,-128.8 -151.8,-129.1 -152.1,-129.1 	"/>
	<polygon class="st0" points="-140.1,-136.7 -120.9,-136.7 -118,-139.3 -117.9,-139.3 -140.2,-139.3 -140.2,-139.3 -140.3,-139.3 
		-152.1,-129.1 -151.8,-129.1 -148.9,-129.1 -140.1,-136.8 	"/>
	<polygon class="st1" points="-140.1,-136.7 -120.9,-136.7 -118,-139.3 -117.9,-139.3 -140.2,-139.3 -140.2,-139.3 -140.3,-139.3 
		-152.1,-129.1 -151.8,-129.1 -148.9,-129.1 -140.1,-136.8 	"/>
	<polygon class="st2" points="-140.1,-114.4 -140.2,-114.4 -140.2,-114.3 -117.9,-114.3 -118,-114.3 -117.8,-114.3 -117.8,-136.7 
		-120.9,-136.7 -140.1,-136.7 	"/>
	<polygon class="st1" points="-140.1,-114.4 -140.2,-114.4 -140.2,-114.3 -117.9,-114.3 -118,-114.3 -117.8,-114.3 -117.8,-136.7 
		-120.9,-136.7 -140.1,-136.7 	"/>
	<polygon class="st0" points="-140.3,-114.3 -140.2,-114.3 -140.2,-114.4 -140.1,-114.4 -140.1,-136.7 -140.1,-136.8 -148.9,-129.1 
		-152.2,-126.2 -152.2,-103.8 -151.8,-104.1 -152.1,-104.1 	"/>
	<polygon class="st1" points="-140.3,-114.3 -140.2,-114.3 -140.2,-114.4 -140.1,-114.4 -140.1,-136.7 -140.1,-136.8 -148.9,-129.1 
		-152.2,-126.2 -152.2,-103.8 -151.8,-104.1 -152.1,-104.1 	"/>
	<polygon class="st0" points="-140.1,-112 -120.6,-112 -118,-114.3 -117.9,-114.3 -140.2,-114.3 -140.2,-114.3 -140.3,-114.3 
		-152.1,-104.1 -151.8,-104.1 -149.2,-104.1 -140.1,-112.1 	"/>
	<polygon class="st1" points="-140.1,-112 -120.6,-112 -118,-114.3 -117.9,-114.3 -140.2,-114.3 -140.2,-114.3 -140.3,-114.3 
		-152.1,-104.1 -151.8,-104.1 -149.2,-104.1 -140.1,-112.1 	"/>
	<polygon class="st2" points="-140.1,-89.7 -140.2,-89.7 -140.2,-89.6 -117.9,-89.6 -118,-89.6 -117.8,-89.6 -117.8,-112 
		-120.6,-112 -140.1,-112 	"/>
	<polygon class="st1" points="-140.1,-89.7 -140.2,-89.7 -140.2,-89.6 -117.9,-89.6 -118,-89.6 -117.8,-89.6 -117.8,-112 
		-120.6,-112 -140.1,-112 	"/>
	<polygon class="st0" points="-140.3,-89.6 -140.2,-89.6 -140.2,-89.7 -140.1,-89.7 -140.1,-112 -140.1,-112.1 -149.2,-104.1 
		-152.2,-101.5 -152.2,-79.1 -151.8,-79.4 -152.1,-79.4 	"/>
	<polygon class="st1" points="-140.3,-89.6 -140.2,-89.6 -140.2,-89.7 -140.1,-89.7 -140.1,-112 -140.1,-112.1 -149.2,-104.1 
		-152.2,-101.5 -152.2,-79.1 -151.8,-79.4 -152.1,-79.4 	"/>
	<polygon class="st0" points="-140.1,-87 -121,-87 -118,-89.6 -117.9,-89.6 -140.2,-89.6 -140.2,-89.6 -140.3,-89.6 -152.1,-79.4 
		-151.8,-79.4 -148.8,-79.4 -140.1,-87 	"/>
	<polygon class="st1" points="-140.1,-87 -121,-87 -118,-89.6 -117.9,-89.6 -140.2,-89.6 -140.2,-89.6 -140.3,-89.6 -152.1,-79.4 
		-151.8,-79.4 -148.8,-79.4 -140.1,-87 	"/>
	<polygon class="st2" points="-140.1,-64.7 -140.2,-64.6 -140.2,-64.6 -117.9,-64.6 -118,-64.5 -117.8,-64.5 -117.8,-87 -121,-87 
		-140.1,-87 	"/>
	<polygon class="st1" points="-140.1,-64.7 -140.2,-64.6 -140.2,-64.6 -117.9,-64.6 -118,-64.5 -117.8,-64.5 -117.8,-87 -121,-87 
		-140.1,-87 	"/>
	<polygon class="st0" points="-140.3,-64.6 -140.2,-64.6 -140.2,-64.6 -140.1,-64.7 -140.1,-87 -140.1,-87 -148.8,-79.4 
		-152.2,-76.4 -152.2,-54.1 -151.8,-54.4 -152.1,-54.4 	"/>
	<polygon class="st1" points="-140.3,-64.6 -140.2,-64.6 -140.2,-64.6 -140.1,-64.7 -140.1,-87 -140.1,-87 -148.8,-79.4 
		-152.2,-76.4 -152.2,-54.1 -151.8,-54.4 -152.1,-54.4 	"/>
	<polygon class="st0" points="-140.1,-61.6 -121.3,-61.6 -118,-64.5 -117.9,-64.6 -140.2,-64.6 -140.2,-64.6 -140.3,-64.6 
		-152.1,-54.4 -151.8,-54.4 -148.5,-54.4 -140.1,-61.7 	"/>
	<polygon class="st1" points="-140.1,-61.6 -121.3,-61.6 -118,-64.5 -117.9,-64.6 -140.2,-64.6 -140.2,-64.6 -140.3,-64.6 
		-152.1,-54.4 -151.8,-54.4 -148.5,-54.4 -140.1,-61.7 	"/>
	<polygon class="st2" points="-140.1,-39.3 -140.2,-39.3 -140.2,-39.3 -117.9,-39.3 -118,-39.2 -117.8,-39.2 -117.8,-61.6 
		-121.3,-61.6 -140.1,-61.6 	"/>
	<polygon class="st1" points="-140.1,-39.3 -140.2,-39.3 -140.2,-39.3 -117.9,-39.3 -118,-39.2 -117.8,-39.2 -117.8,-61.6 
		-121.3,-61.6 -140.1,-61.6 	"/>
	<polygon class="st0" points="-140.3,-39.3 -140.2,-39.3 -140.2,-39.3 -140.1,-39.3 -140.1,-61.6 -140.1,-61.7 -148.5,-54.4 
		-152.2,-51.1 -152.2,-28.8 -151.8,-29 -152.1,-29 	"/>
	<polygon class="st1" points="-140.3,-39.3 -140.2,-39.3 -140.2,-39.3 -140.1,-39.3 -140.1,-61.6 -140.1,-61.7 -148.5,-54.4 
		-152.2,-51.1 -152.2,-28.8 -151.8,-29 -152.1,-29 	"/>
	<polygon class="st0" points="-140.1,-36.6 -120.9,-36.6 -118,-39.2 -117.9,-39.3 -140.2,-39.3 -140.2,-39.3 -140.3,-39.3 
		-152.1,-29 -151.8,-29 -148.9,-29 -140.1,-36.7 	"/>
	<polygon class="st1" points="-140.1,-36.6 -120.9,-36.6 -118,-39.2 -117.9,-39.3 -140.2,-39.3 -140.2,-39.3 -140.3,-39.3 
		-152.1,-29 -151.8,-29 -148.9,-29 -140.1,-36.7 	"/>
	<polygon class="st2" points="-140.1,-14.4 -140.2,-14.3 -140.2,-14.3 -117.9,-14.3 -118,-14.2 -117.8,-14.2 -117.8,-36.6 
		-120.9,-36.6 -140.1,-36.6 	"/>
	<polygon class="st1" points="-140.1,-14.4 -140.2,-14.3 -140.2,-14.3 -117.9,-14.3 -118,-14.2 -117.8,-14.2 -117.8,-36.6 
		-120.9,-36.6 -140.1,-36.6 	"/>
	<polygon class="st0" points="-140.3,-14.3 -140.2,-14.3 -140.2,-14.3 -140.1,-14.3 -140.1,-36.6 -140.1,-36.7 -148.9,-29 
		-152.2,-26.1 -152.2,-3.8 -151.8,-4.1 -152.1,-4.1 	"/>
	<polygon class="st1" points="-140.3,-14.3 -140.2,-14.3 -140.2,-14.3 -140.1,-14.3 -140.1,-36.6 -140.1,-36.7 -148.9,-29 
		-152.2,-26.1 -152.2,-3.8 -151.8,-4.1 -152.1,-4.1 	"/>
	<polygon class="st0" points="-140.1,-11.9 -120.6,-11.9 -118,-14.2 -117.9,-14.3 -140.2,-14.3 -140.2,-14.3 -140.3,-14.3 
		-152.1,-4 -151.8,-4 -149.2,-4 -140.1,-12 	"/>
	<polygon class="st1" points="-140.1,-11.9 -120.6,-11.9 -118,-14.2 -117.9,-14.3 -140.2,-14.3 -140.2,-14.3 -140.3,-14.3 
		-152.1,-4 -151.8,-4 -149.2,-4 -140.1,-12 	"/>
	<polygon class="st2" points="-140.1,10.4 -140.2,10.4 -140.2,10.5 -117.9,10.5 -118,10.5 -117.8,10.5 -117.8,-11.9 -120.6,-11.9 
		-140.1,-11.9 	"/>
	<polygon class="st1" points="-140.1,10.4 -140.2,10.4 -140.2,10.5 -117.9,10.5 -118,10.5 -117.8,10.5 -117.8,-11.9 -120.6,-11.9 
		-140.1,-11.9 	"/>
	<polygon class="st0" points="-140.3,10.4 -140.2,10.4 -140.2,10.4 -140.1,10.4 -140.1,-11.9 -140.1,-12 -149.2,-4 -152.2,-1.4 
		-152.2,21 -151.8,20.7 -152.1,20.7 	"/>
	<polygon class="st1" points="-140.3,10.4 -140.2,10.4 -140.2,10.4 -140.1,10.4 -140.1,-11.9 -140.1,-12 -149.2,-4 -152.2,-1.4 
		-152.2,21 -151.8,20.7 -152.1,20.7 	"/>
	<polygon class="st0" points="-140.1,13 -140.1,13.1 -121,13.1 -118,10.5 -117.9,10.5 -140.2,10.5 -140.2,10.5 -140.3,10.5 
		-152.1,20.7 -151.8,20.7 -148.8,20.7 	"/>
	<polygon class="st1" points="-140.1,13 -140.1,13.1 -121,13.1 -118,10.5 -117.9,10.5 -140.2,10.5 -140.2,10.5 -140.3,10.5 
		-152.1,20.7 -151.8,20.7 -148.8,20.7 	"/>
	<polygon class="st2" points="-140.1,35.4 -140.2,35.4 -140.2,35.5 -117.9,35.5 -118,35.5 -117.8,35.5 -117.8,13.1 -121,13.1 
		-140.1,13.1 	"/>
	<polygon class="st1" points="-140.1,35.4 -140.2,35.4 -140.2,35.5 -117.9,35.5 -118,35.5 -117.8,35.5 -117.8,13.1 -121,13.1 
		-140.1,13.1 	"/>
	<polygon class="st0" points="-140.3,35.5 -140.2,35.5 -140.2,35.4 -140.1,35.4 -140.1,13.1 -140.1,13 -148.8,20.7 -152.2,23.6 
		-152.2,46 -151.8,45.7 -152.1,45.7 	"/>
	<polygon class="st1" points="-140.3,35.5 -140.2,35.5 -140.2,35.4 -140.1,35.4 -140.1,13.1 -140.1,13 -148.8,20.7 -152.2,23.6 
		-152.2,46 -151.8,45.7 -152.1,45.7 	"/>
	<polygon class="st2" points="-140.2,35.5 -140.2,35.5 -140.3,35.5 -152.1,45.7 -151.8,45.7 -129.7,45.7 -118,35.5 -117.9,35.5 	"/>
	<polygon class="st1" points="-140.2,35.5 -140.2,35.5 -140.3,35.5 -152.1,45.7 -151.8,45.7 -129.7,45.7 -118,35.5 -117.9,35.5 	"/>
</g>
<g>
	<polygon class="st0" points="14.1,26.6 14.2,26.6 14.2,26.6 	"/>
	<polygon class="st1" points="14.2,26.6 14.2,26.6 14.1,26.6 	"/>
	<polygon class="st3" points="14.2,26.5 14.2,26.6 14.2,26.6 36.5,26.6 36.4,26.7 36.6,26.7 36.6,4.3 33.4,4.3 14.2,4.3 	"/>
	<polygon class="st4" points="14.2,26.5 14.2,26.6 14.2,26.6 36.5,26.6 36.4,26.7 36.6,26.7 36.6,4.3 33.4,4.3 14.2,4.3 	"/>
	<polygon class="st5" points="14.1,26.6 14.1,26.6 14.2,26.6 14.2,26.5 14.2,4.3 14.2,4.2 5.6,11.8 2.2,14.8 2.2,37.1 2.5,36.8 
		2.3,36.8 	"/>
	<polygon class="st4" points="14.1,26.6 14.1,26.6 14.2,26.6 14.2,26.5 14.2,4.3 14.2,4.2 5.6,11.8 2.2,14.8 2.2,37.1 2.5,36.8 
		2.3,36.8 	"/>
	<polygon class="st3" points="14.2,26.6 14.1,26.6 14.1,26.6 2.3,36.8 2.5,36.8 24.6,36.8 36.4,26.7 36.5,26.6 	"/>
	<polygon class="st4" points="14.2,26.6 14.1,26.6 14.1,26.6 2.3,36.8 2.5,36.8 24.6,36.8 36.4,26.7 36.5,26.6 	"/>
</g>
</svg>
