<?xml version="1.0" encoding="utf-8"?>
<!-- Generator: Adobe Illustrator 22.0.1, SVG Export Plug-In . SVG Version: 6.00 Build 0)  -->
<!DOCTYPE svg PUBLIC "-//W3C//DTD SVG 1.1//EN" "http://www.w3.org/Graphics/SVG/1.1/DTD/svg11.dtd">
<svg version="1.1" id="Capa_1" xmlns="http://www.w3.org/2000/svg" xmlns:xlink="http://www.w3.org/1999/xlink" x="0px" y="0px"
	 viewBox="0 0 96.6 76" style="enable-background:new 0 0 96.6 76;" xml:space="preserve">
<style type="text/css">
	.st0{fill:#878587;}
	.st1{fill:#6C6B6D;}
	.st2{fill:#505051;}
	.st3{fill:#92C0BA;}
	.st4{fill:#78B2A1;}
	.st5{fill:#F9E97D;}
	.st6{fill:#DECC69;}
	.st7{fill:#3E3D3F;}
	.st8{fill:#F1DDD0;}
	.st9{fill:#E7C0B0;}
	.st10{fill:#C3DDDB;}
</style>
<g>
	<path class="st0" d="M63.5,23.8c0,0-7.9-0.9-15.7-0.9c-7.8,0-15.7,0.9-15.7,0.9L7.6,27.5l0.7,4.7l23.9-3.6c0,0,7.9-0.9,15.7-0.9
		c7.8,0,15.7,0.9,15.7,0.9l23.9,3.6l0.7-4.7L63.5,23.8z"/>
	<path class="st1" d="M47.8,25.3c-7.8,0-15.7,0.9-15.7,0.9L7.9,29.8l0.4,2.3l23.9-3.6c0,0,7.9-0.9,15.7-0.9s15.7,0.9,15.7,0.9
		l23.9,3.6l0.4-2.3l-24.2-3.6C63.5,26.2,55.6,25.3,47.8,25.3"/>
	<rect x="31.2" y="21.7" transform="matrix(0.989 -0.148 0.148 0.989 -3.5264 5.0003)" class="st1" width="1.2" height="9"/>
	<rect x="31.6" y="26.2" transform="matrix(0.989 -0.1478 0.1478 0.989 -3.8487 5.069)" class="st2" width="1.2" height="4.5"/>
	<rect x="22.3" y="12" transform="matrix(0.989 -0.1478 0.1478 0.989 -3.6902 4.258)" class="st3" width="9" height="30"/>
	<rect x="23.4" y="26.9" transform="matrix(0.989 -0.1478 0.1478 0.989 -4.7744 4.5034)" class="st4" width="9" height="15"/>
	<rect x="16.4" y="19.1" transform="matrix(0.989 -0.1478 0.1478 0.989 -3.935 3.1735)" class="st5" width="6" height="18"/>
	<rect x="17.1" y="28" transform="matrix(0.989 -0.1478 0.1478 0.989 -4.5854 3.3206)" class="st6" width="6" height="9"/>
	<rect x="12.8" y="24" transform="matrix(0.989 -0.1477 0.1477 0.989 -4.0892 2.4777)" class="st1" width="3.6" height="9.6"/>
	<rect x="13.2" y="28.7" transform="matrix(0.989 -0.1477 0.1477 0.989 -4.4358 2.5561)" class="st7" width="3.6" height="4.8"/>
	<rect x="12.8" y="26.4" transform="matrix(0.989 -0.1477 0.1477 0.989 -4.0892 2.4777)" class="st2" width="3.6" height="4.8"/>
	<rect x="59.3" y="25.6" transform="matrix(0.148 -0.989 0.989 0.148 28.4719 85.4547)" class="st1" width="9" height="1.2"/>
	<rect x="61.2" y="27.8" transform="matrix(0.1478 -0.989 0.989 0.1478 25.996 87.0268)" class="st2" width="4.5" height="1.2"/>
	<rect x="53.9" y="22.5" transform="matrix(0.1478 -0.989 0.989 0.1478 32.033 91.0903)" class="st3" width="30" height="9"/>
	<rect x="60.3" y="29.9" transform="matrix(0.1478 -0.989 0.989 0.1478 23.7527 96.3147)" class="st4" width="15" height="9"/>
	<rect x="67.3" y="25.1" transform="matrix(0.1478 -0.989 0.989 0.1478 37.2584 99.3708)" class="st5" width="18" height="6"/>
	<rect x="71.1" y="29.5" transform="matrix(0.1478 -0.989 0.989 0.1478 32.2906 102.5057)" class="st6" width="9" height="6"/>
	<rect x="76.2" y="27" transform="matrix(0.1477 -0.989 0.989 0.1477 40.6102 104.6747)" class="st1" width="9.6" height="3.6"/>
	<rect x="78.3" y="29.3" transform="matrix(0.1477 -0.989 0.989 0.1477 37.9604 106.3465)" class="st7" width="4.8" height="3.6"/>
	<rect x="78.6" y="27" transform="matrix(0.1477 -0.989 0.989 0.1477 40.61 104.6746)" class="st2" width="4.8" height="3.6"/>
	<path class="st8" d="M44.7,18.9c-0.8,0-1.5,0.6-1.5,1.4l-0.4,7.2l2.9,0.1l0.4-7.2C46.1,19.6,45.5,18.9,44.7,18.9"/>
	<path class="st8" d="M48,17.7c-0.8,0-1.4,0.6-1.4,1.4v7h2.9v-7C49.5,18.3,48.8,17.7,48,17.7"/>
	<path class="st9" d="M51.7,18.9c-0.8,0-1.4,0.6-1.4,1.4v7.2h2.9v-7.2C53.1,19.6,52.5,18.9,51.7,18.9"/>
	<path class="st9" d="M54.8,20c-0.8,0.1-1.4,0.8-1.3,1.6l0.5,6.5c0.9-0.1,1.9-0.2,2.8-0.2c0-1.1,0-2.3-0.2-3.6c-0.1-1-0.2-2-0.3-2.9
		C56.1,20.5,55.4,19.9,54.8,20"/>
	<path class="st8" d="M44.9,39c-0.1-1.2-1.5-2-2.6-3.3c-0.6-0.7-1-3.8-1.1-4.7c-0.1-0.7-0.1-1.1-0.1-3.1l1.6-0.1
		c0-0.9,0.2-2.9,0.1-2.9h7.3v14H44.9z"/>
	<path class="st8" d="M55.8,70.8V39l-11.6-1.7c0,0,1.6,1.5,1.1,8.2c-0.1,1.3-4,23.9-4.1,25.2"/>
	<polyline class="st9" points="55.8,70.8 55.8,39 49.8,39 49.8,70.8 	"/>
	<polyline class="st10" points="40.7,71.6 44.8,44.1 56.2,44.1 56.2,71.3 	"/>
	<polyline class="st3" points="49.8,71.3 49.8,44.1 56.3,44.1 56.3,71.3 	"/>
	<path class="st9" d="M49.8,24.9v14h5.9c0,0,0.9-3.3,1-4.5c0.2-1.9,0.1-6.7,0-8.7c0-0.5-0.4-0.9-0.9-0.9H49.8z"/>
	<path class="st9" d="M42.8,27.8c0,0-0.1,1.7-0.3,3.6c0,0-0.8-1.6-0.7-3v-0.6L42.8,27.8z"/>
</g>
</svg>
